# xmcd CD database file
#
# Track frame offsets:
#	150
#	25911
#	45426
#	55158
#	76278
#	97732
#	123179
#	141378
#	159137
#	186614
#
# Disc length: 2668 seconds
#
# Revision: 0
# Processed by: cddbd v1.5.2PL0 Copyright (c) Steve Scherf et al.
# Submitted via: CDex 1.70beta2
#
DISCID=770a6a0a
DTITLE=雨の246 - Shima&ShikouDUO
DYEAR=2006
DGENRE=Jazz
TTITLE0=セビーリャにて
TTITLE1=雨の246
TTITLE2=Browing summertime
TTITLE3=15歳の修羅場
TTITLE4=猫がくる
TTITLE5=長月
TTITLE6=知らない場所へ
TTITLE7=山息吹
TTITLE8=Close to You (Live with Saigenji)
TTITLE9=What a wonderful world
EXTD=YEAR: 2006
EXTT0=
EXTT1=
EXTT2=
EXTT3=
EXTT4=
EXTT5=
EXTT6=
EXTT7=
EXTT8=
EXTT9=
PLAYORDER=
